<svg id="Layer_1" data-name="Layer 1" xmlns="http://www.w3.org/2000/svg" viewBox="0 0 494.65 494.65"><defs><style>.cls-1{fill:#c0d6ec;}</style></defs><title>logo1</title><path class="cls-1" d="M417.56,651.44a5.18,5.18,0,0,1-5.18-5.18V400.73a5.19,5.19,0,0,1,8-4.37L528.8,465.58V247.1a5.18,5.18,0,1,1,10.36,0V475a5.18,5.18,0,0,1-8,4.37L422.74,410.18V646.26A5.18,5.18,0,0,1,417.56,651.44Z" transform="translate(-362.02 -199.35)"/><path class="cls-1" d="M801.12,651.44a5.18,5.18,0,0,1-5.18-5.18V410.18L687.49,479.4a5.18,5.18,0,0,1-8-4.37V247.1a5.18,5.18,0,1,1,10.36,0V465.58l108.45-69.22a5.19,5.19,0,0,1,8,4.37V646.26A5.18,5.18,0,0,1,801.12,651.44Z" transform="translate(-362.02 -199.35)"/><path class="cls-1" d="M609.34,389.09a51.21,51.21,0,1,1,51.21-51.21A51.26,51.26,0,0,1,609.34,389.09Zm0-92.06a40.85,40.85,0,1,0,40.85,40.85A40.9,40.9,0,0,0,609.34,297Z" transform="translate(-362.02 -199.35)"/><path class="cls-1" d="M609.34,510.09a51.21,51.21,0,1,1,51.21-51.21A51.26,51.26,0,0,1,609.34,510.09Zm0-92.06a40.85,40.85,0,1,0,40.85,40.85A40.89,40.89,0,0,0,609.34,418Z" transform="translate(-362.02 -199.35)"/><path class="cls-1" d="M760.9,651.44a5.18,5.18,0,0,1-5.18-5.18V543.33l-65.84,37.24v65.69a5.18,5.18,0,1,1-10.36,0V577.55a5.19,5.19,0,0,1,2.63-4.51l76.2-43.1a5.18,5.18,0,0,1,7.73,4.51V646.26A5.18,5.18,0,0,1,760.9,651.44Z" transform="translate(-362.02 -199.35)"/><path class="cls-1" d="M534,651.44a5.18,5.18,0,0,1-5.18-5.18V580.57L463,543.33V646.26a5.18,5.18,0,0,1-10.36,0V534.45a5.18,5.18,0,0,1,7.73-4.51l76.2,43.1a5.19,5.19,0,0,1,2.63,4.51v68.71A5.18,5.18,0,0,1,534,651.44Z" transform="translate(-362.02 -199.35)"/><path class="cls-1" d="M760.9,539.63a5.18,5.18,0,0,1-5.18-5.18V475.37a5.18,5.18,0,0,1,10.36,0v59.08A5.18,5.18,0,0,1,760.9,539.63Z" transform="translate(-362.02 -199.35)"/><path class="cls-1" d="M609.34,651.44a5.18,5.18,0,0,1-5.18-5.18V579.88a5.18,5.18,0,1,1,10.36,0v66.38A5.18,5.18,0,0,1,609.34,651.44Z" transform="translate(-362.02 -199.35)"/><path class="cls-1" d="M609.34,565.54a5.18,5.18,0,0,1-5.18-5.18v-4.27a5.18,5.18,0,1,1,10.36,0v4.27A5.18,5.18,0,0,1,609.34,565.54Z" transform="translate(-362.02 -199.35)"/><path class="cls-1" d="M844.69,694H374a12,12,0,0,1-12-12V211.32a12,12,0,0,1,12-12H844.69a12,12,0,0,1,12,12V682A12,12,0,0,1,844.69,694ZM374,209.71a1.61,1.61,0,0,0-1.6,1.61V682a1.61,1.61,0,0,0,1.6,1.61H844.69A1.61,1.61,0,0,0,846.3,682V211.32a1.61,1.61,0,0,0-1.61-1.61Z" transform="translate(-362.02 -199.35)"/></svg>